# xmcd
# Track frame offsets:
# 150
# 11865
# 23890
# 36487
# 49322
# 62760
# 74805
# 85952
# 96787
# 110472
# 122007
# 134745
# 146282
# 158565
# 171370
# 185185
# 199602
# 210950
# 225307
# 253270
# 295002
# 307897
# 320550
#
# Disc length: 4434 seconds
# Revision: 1
# Processed by: cddbd v1.4PL0 Copyright (c) Steve Scherf et al.
# Submitted via: VisiTrax 2.9.5.181 - For more info visit www.synapsa.com
#
DISCID=56115017
DTITLE=Leo Watson - The Original Scat Man
DYEAR=1999
DGENRE=Jazz
TTITLE0=Nobody's Sweetheart
TTITLE1=I Got Rhythm
TTITLE2=I've A Strange New Rhythm In My Heart
TTITLE3=Shoot The Likker To Me John
TTITLE4=Free Wheeling
TTITLE5=Whistle While You Work
TTITLE6=Nagasaki
TTITLE7=Tutti Frutti
TTITLE8=Jeepers Creepers
TTITLE9=Do You Want To Jump, Children?
TTITLE10=Man With The Mandolin, The
TTITLE11=Utt Da Say
TTITLE12=Jada
TTITLE13=It's The Tune That Counts
TTITLE14=Honeysuckle Rose
TTITLE15=Scattin' The Blues
TTITLE16=She Ain't No Saint
TTITLE17=Coquette
TTITLE18=Avocado Seed Soup
TTITLE19=Symphony Sonny Boy
TTITLE20=Tight And Gay
TTITLE21=Snake Pit
TTITLE22=Jingle Bells
EXTD=INDIGO, IGO CD 2098
EXTT0=
EXTT1=
EXTT2=
EXTT3=
EXTT4=
EXTT5=
EXTT6=
EXTT7=
EXTT8=
EXTT9=
EXTT10=
EXTT11=
EXTT12=
EXTT13=
EXTT14=
EXTT15=
EXTT16=
EXTT17=
EXTT18=
EXTT19=
EXTT20=
EXTT21=
EXTT22=
PLAYORDER=
